<svg id="Livello_1" data-name="Livello 1" xmlns="http://www.w3.org/2000/svg" viewBox="0 0 369.92 283.04"><defs><style>.cls-1{fill:#1d1d1b;}.cls-2{fill:none;stroke:#1d1d1b;stroke-miterlimit:10;stroke-width:5px;}</style></defs><path class="cls-1" d="M106.12,341.31c6,.21,12,.44,18,1.22l-3.32-.45a64,64,0,0,1,16,4.06l-3-1.26a44.51,44.51,0,0,1,9.62,5.54l-2.53-2a35.21,35.21,0,0,1,6.15,6.11l-2-2.53a29.92,29.92,0,0,1,3.75,6.45l-1.26-3a39.42,39.42,0,0,1,2.4,9.44l-.45-3.32a162,162,0,0,1,.81,18.17c.08,6.27.09,12.54.14,18.8.08,12.31.29,24.63,1.35,36.9,1.15,13.17,3.07,26.44,6.87,39.13a70.52,70.52,0,0,0,7.61,17.68,54.09,54.09,0,0,0,15.25,15.49c5.34,3.71,11.34,6.32,17.34,8.76a109.92,109.92,0,0,0,16.07,5.1A176.08,176.08,0,0,0,251.61,526c23.81.52,47.54-2.42,71.3-3.43a681.27,681.27,0,0,1,77.48,1.15c3.2.23,6.4.49,9.59.76,3,.26,6.76-1.58,8.84-3.66a12.51,12.51,0,0,0,0-17.68,14.05,14.05,0,0,0-8.84-3.66,683.6,683.6,0,0,0-73.25-2.35c-23,.5-45.77,2.92-68.69,3.72a220.21,220.21,0,0,1-36.85-1.37l3.32.45A120.3,120.3,0,0,1,204,491.85l3,1.26a68.79,68.79,0,0,1-14.72-8.24l2.53,1.95a40,40,0,0,1-6.86-6.71l2,2.53a45.57,45.57,0,0,1-5.64-9.81l1.26,3c-4.35-10.36-6.5-21.73-8-32.81l.45,3.33c-2.93-21.86-2.42-44-2.69-66-.15-12.36-.07-25-5.75-36.33a39.73,39.73,0,0,0-9.76-12.25,56.85,56.85,0,0,0-14.9-9.14c-12.25-5.17-25.64-5.89-38.77-6.35-6.55-.22-12.8,5.92-12.5,12.5a12.75,12.75,0,0,0,12.5,12.5Z" transform="translate(-93.61 -316.31)"/><path class="cls-1" d="M193,483.5l102.78-10.17L398,463.22l57.21-5.66a2.53,2.53,0,0,0,2.41-3.16,201.51,201.51,0,0,1-2.37-97.75,210.54,210.54,0,0,1,8.13-27.17,2.5,2.5,0,1,0-4.82-1.33,206.33,206.33,0,0,0-5.76,127.58l2.41-3.17L352.76,462.7,250.52,472.81,193,478.5a2.57,2.57,0,0,0-2.5,2.5,2.52,2.52,0,0,0,2.5,2.5Z" transform="translate(-93.61 -316.31)"/><circle class="cls-2" cx="110.06" cy="251.79" r="28.75"/><circle class="cls-2" cx="287.62" cy="251.79" r="28.75"/></svg>