<svg id="Livello_1" data-name="Livello 1" xmlns="http://www.w3.org/2000/svg" xmlns:xlink="http://www.w3.org/1999/xlink" viewBox="0 0 524.73 458.8"><defs><style>.cls-1,.cls-10,.cls-2,.cls-3,.cls-4,.cls-5,.cls-6,.cls-7,.cls-8,.cls-9{stroke:#fff;stroke-miterlimit:10;stroke-width:2.4px;}.cls-1{fill:url(#Sfumatura_senza_nome_109);}.cls-2{fill:url(#Sfumatura_senza_nome_109-2);}.cls-3{fill:url(#Sfumatura_senza_nome_111);}.cls-4{fill:url(#Sfumatura_senza_nome_111-2);}.cls-5{fill:url(#Sfumatura_senza_nome_205);}.cls-6{fill:url(#Sfumatura_senza_nome_205-2);}.cls-7{fill:url(#Sfumatura_senza_nome_206);}.cls-8{fill:url(#Sfumatura_senza_nome_206-2);}.cls-9{fill:url(#Sfumatura_senza_nome_207);}.cls-10{fill:url(#Sfumatura_senza_nome_207-2);}.cls-11{font-size:72px;fill:#ef7c74;font-family:SegoeScript, Segoe Script;letter-spacing:0.01em;}</style><linearGradient id="Sfumatura_senza_nome_109" x1="1000.37" y1="278.97" x2="1000.37" y2="545.86" gradientTransform="matrix(-1, 0, 0, 1, 1694.28, 0)" gradientUnits="userSpaceOnUse"><stop offset="0" stop-color="#f6f3ba"/><stop offset="0.16" stop-color="#f3f1b8"/><stop offset="0.3" stop-color="#e8eab2"/><stop offset="0.43" stop-color="#d6dfa8"/><stop offset="0.55" stop-color="#becf9a"/><stop offset="0.67" stop-color="#9dba87"/><stop offset="0.79" stop-color="#76a170"/><stop offset="0.9" stop-color="#488456"/><stop offset="1" stop-color="#19663b"/></linearGradient><linearGradient id="Sfumatura_senza_nome_109-2" x1="1017.06" y1="273.16" x2="1017.06" y2="540.05" xlink:href="#Sfumatura_senza_nome_109"/><linearGradient id="Sfumatura_senza_nome_111" x1="1065.24" y1="246.48" x2="1065.24" y2="566.73" gradientTransform="matrix(-1, 0, 0, 1, 1694.28, 0)" gradientUnits="userSpaceOnUse"><stop offset="0" stop-color="#fac366"/><stop offset="0.16" stop-color="#f7c265"/><stop offset="0.3" stop-color="#ecbd63"/><stop offset="0.42" stop-color="#dab660"/><stop offset="0.55" stop-color="#c2ac5b"/><stop offset="0.66" stop-color="#a19e55"/><stop offset="0.78" stop-color="#7a8e4e"/><stop offset="0.89" stop-color="#4c7b45"/><stop offset="1" stop-color="#19663b"/></linearGradient><linearGradient id="Sfumatura_senza_nome_111-2" x1="1011.95" y1="246.48" x2="1011.95" y2="566.73" xlink:href="#Sfumatura_senza_nome_111"/><linearGradient id="Sfumatura_senza_nome_205" x1="494.47" y1="278.97" x2="494.47" y2="545.86" gradientUnits="userSpaceOnUse"><stop offset="0" stop-color="#f6f3ba"/><stop offset="1" stop-color="#19663b"/></linearGradient><linearGradient id="Sfumatura_senza_nome_205-2" x1="511.16" y1="273.16" x2="511.16" y2="540.05" xlink:href="#Sfumatura_senza_nome_205"/><linearGradient id="Sfumatura_senza_nome_206" x1="559.33" y1="246.48" x2="559.33" y2="566.73" gradientUnits="userSpaceOnUse"><stop offset="0" stop-color="#fac366"/><stop offset="0.13" stop-color="#f6c165"/><stop offset="0.26" stop-color="#e9bc63"/><stop offset="0.4" stop-color="#d5b45f"/><stop offset="0.53" stop-color="#b8a859"/><stop offset="0.67" stop-color="#929852"/><stop offset="0.81" stop-color="#648549"/><stop offset="0.95" stop-color="#2f6f3f"/><stop offset="1" stop-color="#19663b"/></linearGradient><linearGradient id="Sfumatura_senza_nome_206-2" x1="506.05" y1="246.48" x2="506.05" y2="566.73" xlink:href="#Sfumatura_senza_nome_206"/><linearGradient id="Sfumatura_senza_nome_207" x1="648" y1="236.2" x2="648" y2="577.01" gradientUnits="userSpaceOnUse"><stop offset="0" stop-color="#ef7c74"/><stop offset="0.4" stop-color="#ed7c74"/><stop offset="0.55" stop-color="#e67c72"/><stop offset="0.65" stop-color="#db7b6f"/><stop offset="0.74" stop-color="#ca7b6a"/><stop offset="0.81" stop-color="#b47a65"/><stop offset="0.87" stop-color="#98795e"/><stop offset="0.93" stop-color="#787956"/><stop offset="0.98" stop-color="#54774c"/><stop offset="1" stop-color="#437748"/></linearGradient><linearGradient id="Sfumatura_senza_nome_207-2" x1="541.71" y1="236.2" x2="541.71" y2="577.01" xlink:href="#Sfumatura_senza_nome_207"/></defs><path class="cls-1" d="M576,540.05h0C729.2,578,859,423.23,795.09,279h0" transform="translate(-334.55 -235.12)"/><path class="cls-2" d="M576,540.05h0c-63.94-144.27,65.9-299,219.07-261.08h0" transform="translate(-334.55 -235.12)"/><path class="cls-3" d="M597.4,566.73h0C488,453,557.05,263.23,714,246.48h0" transform="translate(-334.55 -235.12)"/><path class="cls-4" d="M597.4,566.73h0C754.31,550,823.39,360.17,714,246.48h0" transform="translate(-334.55 -235.12)"/><path class="cls-5" d="M612.35,540.05h0C459.17,578,329.33,423.23,393.28,279h0" transform="translate(-334.55 -235.12)"/><path class="cls-6" d="M612.35,540.05h0c63.95-144.27-65.9-299-219.07-261.08h0" transform="translate(-334.55 -235.12)"/><path class="cls-7" d="M591,566.73h0C700.4,453,631.32,263.23,474.41,246.48h0" transform="translate(-334.55 -235.12)"/><path class="cls-8" d="M591,566.73h0C434.06,550,365,360.17,474.41,246.48h0" transform="translate(-334.55 -235.12)"/><path class="cls-9" d="M594.85,577h0c141.72-69.41,141.72-271.4,0-340.81h0" transform="translate(-334.55 -235.12)"/><path class="cls-10" d="M594.85,577h0c-141.72-69.41-141.72-271.4,0-340.81h0" transform="translate(-334.55 -235.12)"/><text class="cls-11" transform="translate(1.29 423.16)">Casa dei fiori</text></svg>